<svg xmlns="http://www.w3.org/2000/svg">
    <symbol id="trashbin" viewBox="0 0 32 32">
        <path
            d="M4 10v20c0 1.1.9 2 2 2h18c1.1 0 2-.9 2-2V10H4zm6 18H8V14h2v14zm4 0h-2V14h2v14zm4 0h-2V14h2v14zm4 0h-2V14h2v14zM26.5 4H20V1.5c0-.825-.675-1.5-1.5-1.5h-7c-.825 0-1.5.675-1.5 1.5V4H3.5C2.675 4 2 4.675 2 5.5V8h26V5.5c0-.825-.675-1.5-1.5-1.5zM18 4h-6V2.025h6V4z" />
    </symbol>
    <symbol id="edit" viewBox="0 0 24 24">
        <path
            d="m20.719 7.031-1.828 1.828-3.75-3.75 1.828-1.828Q17.25 3 17.672 3t.703.281l2.344 2.344q.281.281.281.703t-.281.703zM3 17.25 14.063 6.187l3.75 3.75L6.75 21H3v-3.75z" />
    </symbol>
</svg>