<svg xmlns="http://www.w3.org/2000/svg">
    <symbol id="trashbin" viewBox="0 0 32 32">
        <path
            d="M4 10v20c0 1.1.9 2 2 2h18c1.1 0 2-.9 2-2V10H4zm6 18H8V14h2v14zm4 0h-2V14h2v14zm4 0h-2V14h2v14zm4 0h-2V14h2v14zM26.5 4H20V1.5c0-.825-.675-1.5-1.5-1.5h-7c-.825 0-1.5.675-1.5 1.5V4H3.5C2.675 4 2 4.675 2 5.5V8h26V5.5c0-.825-.675-1.5-1.5-1.5zM18 4h-6V2.025h6V4z" />
    </symbol>
    <symbol id="edit" viewBox="0 0 24 24">
        <path
            d="m20.719 7.031-1.828 1.828-3.75-3.75 1.828-1.828Q17.25 3 17.672 3t.703.281l2.344 2.344q.281.281.281.703t-.281.703zM3 17.25 14.063 6.187l3.75 3.75L6.75 21H3v-3.75z" />
    </symbol>
    <symbol id="close" viewBox="0 0 20 20">
        <path
            d="M10 8.586l-7.071-7.071-1.414 1.414 7.071 7.071-7.071 7.071 1.414 1.414 7.071-7.071 7.071 7.071 1.414-1.414-7.071-7.071 7.071-7.071-1.414-1.414-7.071 7.071z">
        </path>
    </symbol>
    <symbol id="arrow-left" viewBox="0 0 29 28">
        <path
            d="M28 12.5v3c0 0.281-0.219 0.5-0.5 0.5h-19.5v3.5c0 0.203-0.109 0.375-0.297 0.453s-0.391 0.047-0.547-0.078l-6-5.469c-0.094-0.094-0.156-0.219-0.156-0.359v0c0-0.141 0.063-0.281 0.156-0.375l6-5.531c0.156-0.141 0.359-0.172 0.547-0.094 0.172 0.078 0.297 0.25 0.297 0.453v3.5h19.5c0.281 0 0.5 0.219 0.5 0.5z">
        </path>
    </symbol>
    <symbol id="arrow-right" viewBox="0 0 27 28">
        <path
            d="M27 13.953c0 0.141-0.063 0.281-0.156 0.375l-6 5.531c-0.156 0.141-0.359 0.172-0.547 0.094-0.172-0.078-0.297-0.25-0.297-0.453v-3.5h-19.5c-0.281 0-0.5-0.219-0.5-0.5v-3c0-0.281 0.219-0.5 0.5-0.5h19.5v-3.5c0-0.203 0.109-0.375 0.297-0.453s0.391-0.047 0.547 0.078l6 5.469c0.094 0.094 0.156 0.219 0.156 0.359v0z">
        </path>
    </symbol>
</svg>