<svg xmlns="http://www.w3.org/2000/svg">
    <symbol id="searchIcon" viewBox="0 0 32 32">
        <path
            d="M31.715 28.953c.381.381.381.999 0 1.381l-1.381 1.381c-.382.381-1 .381-1.381 0l-9.668-9.668c-.105-.105-.175-.229-.222-.361C17.08 23.135 14.645 24 12 24 5.373 24 0 18.627 0 12S5.373 0 12 0s12 5.373 12 12c0 2.645-.865 5.08-2.314 7.063.132.047.256.116.361.222l9.668 9.668zM12 4c-4.418 0-8 3.582-8 8s3.582 8 8 8 8-3.582 8-8-3.582-8-8-8z" />
    </symbol>
    <symbol id="paperPlaneIcon" viewBox="0 0 28 28">
        <path
            d="M27.563.172c.328.234.484.609.422 1l-4 24c-.047.297-.234.547-.5.703-.141.078-.313.125-.484.125-.125 0-.25-.031-.375-.078l-8.234-3.359-4.656 5.109c-.187.219-.453.328-.734.328-.125 0-.25-.016-.359-.063-.391-.156-.641-.531-.641-.938v-7.063L.627 16.92c-.359-.141-.594-.469-.625-.859-.031-.375.172-.734.5-.922l26-15c.328-.203.75-.187 1.062.031zm-5.344 23.422 3.453-20.672L3.266 15.844l5.25 2.141L22 8.001l-7.469 12.453z" />
    </symbol>
</svg>