<svg xmlns="http://www.w3.org/2000/svg">
    <symbol id="searchIcon" viewBox="0 0 32 32">
        <path
            d="M31.715 28.953c.381.381.381.999 0 1.381l-1.381 1.381c-.382.381-1 .381-1.381 0l-9.668-9.668c-.105-.105-.175-.229-.222-.361C17.08 23.135 14.645 24 12 24 5.373 24 0 18.627 0 12S5.373 0 12 0s12 5.373 12 12c0 2.645-.865 5.08-2.314 7.063.132.047.256.116.361.222l9.668 9.668zM12 4c-4.418 0-8 3.582-8 8s3.582 8 8 8 8-3.582 8-8-3.582-8-8-8z" />
    </symbol>
    <symbol id="paperPlaneIcon" viewBox="0 0 28 28">
        <path
            d="M27.563.172c.328.234.484.609.422 1l-4 24c-.047.297-.234.547-.5.703-.141.078-.313.125-.484.125-.125 0-.25-.031-.375-.078l-8.234-3.359-4.656 5.109c-.187.219-.453.328-.734.328-.125 0-.25-.016-.359-.063-.391-.156-.641-.531-.641-.938v-7.063L.627 16.92c-.359-.141-.594-.469-.625-.859-.031-.375.172-.734.5-.922l26-15c.328-.203.75-.187 1.062.031zm-5.344 23.422 3.453-20.672L3.266 15.844l5.25 2.141L22 8.001l-7.469 12.453z" />
    </symbol>
    <symbol id="onlineStatus" viewBox="0 0 20 20">
        <path
            d="M2.93 17.07C1.046 15.249-.123 12.7-.123 9.877c0-5.523 4.477-10 10-10 2.823 0 5.372 1.169 7.19 3.05l.003.003c1.737 1.796 2.807 4.247 2.807 6.947 0 5.523-4.477 10-10 10-2.7 0-5.151-1.07-6.95-2.81l.003.003zm12.73-1.41c1.449-1.449 2.344-3.45 2.344-5.66 0-4.421-3.584-8.004-8.004-8.004-2.21 0-4.211.896-5.66 2.344C2.891 5.789 1.996 7.79 1.996 10c0 4.421 3.584 8.004 8.004 8.004 2.21 0 4.211-.896 5.66-2.344zM6.7 9.29 9 11.6l4.3-4.3 1.4 1.42L9 14.4l-3.7-3.7 1.4-1.42z" />
    </symbol>
</svg>